<?xml version="1.0" standalone="no"?>
<!DOCTYPE svg PUBLIC "-//W3C//DTD SVG 20010904//EN"
 "http://www.w3.org/TR/2001/REC-SVG-20010904/DTD/svg10.dtd">
<svg version="1.0" xmlns="http://www.w3.org/2000/svg"
 width="512.000000pt" height="512.000000pt" viewBox="0 0 512.000000 512.000000"
 preserveAspectRatio="xMidYMid meet">

<g transform="translate(0.000000,512.000000) scale(0.100000,-0.100000)"
fill="#1AEDD1" stroke="none">
<path d="M2330 5109 c-205 -19 -465 -77 -646 -144 -152 -56 -407 -185 -532
-268 -368 -247 -677 -591 -871 -969 -421 -825 -363 -1825 151 -2590 133 -199
344 -428 533 -579 474 -380 1081 -580 1685 -556 682 28 1278 294 1750 783 415
429 655 960 711 1574 30 324 -22 725 -137 1051 -74 212 -256 555 -326 614 -34
29 -68 32 -108 8 -31 -18 -50 -51 -50 -86 0 -12 34 -78 76 -147 41 -69 97
-170 123 -225 380 -793 281 -1747 -254 -2444 -380 -496 -921 -812 -1555 -908
-158 -23 -482 -23 -640 0 -602 92 -1112 374 -1492 827 -552 658 -699 1575
-382 2380 222 562 672 1032 1224 1280 618 277 1314 277 1939 1 102 -46 132
-62 293 -159 93 -56 111 -64 141 -58 81 15 110 108 52 165 -67 65 -335 210
-532 287 -352 138 -781 199 -1153 163z"/>
<path d="M4252 4365 c-65 -28 -76 -130 -19 -170 37 -26 94 -19 128 14 39 40
40 89 2 130 -35 36 -68 44 -111 26z"/>
<path d="M997 2839 c-28 -17 -49 -68 -43 -104 10 -54 127 -149 250 -205 109
-50 179 -64 316 -64 182 0 302 37 445 139 97 69 120 99 120 152 0 37 -5 49
-28 69 -48 41 -92 33 -168 -28 -180 -144 -404 -176 -601 -85 -40 18 -102 57
-137 85 -67 54 -111 66 -154 41z"/>
<path d="M3069 2821 c-22 -22 -29 -39 -29 -68 0 -33 7 -45 64 -98 71 -69 209
-144 316 -172 89 -24 290 -23 380 1 151 40 345 167 370 240 13 41 -5 98 -38
115 -46 24 -86 13 -162 -45 -40 -30 -87 -62 -103 -71 -202 -104 -454 -73 -631
78 -48 41 -64 49 -98 49 -30 0 -46 -7 -69 -29z"/>
<path d="M2430 1849 c-97 -11 -204 -39 -306 -78 -195 -75 -424 -254 -424 -331
0 -25 32 -71 61 -85 45 -24 81 -11 150 50 189 168 402 249 654 248 249 -1 453
-79 649 -247 60 -52 76 -61 109 -61 31 0 45 7 68 33 61 69 32 126 -125 243
-164 123 -380 207 -586 229 -108 11 -145 11 -250 -1z"/>
</g>
</svg>
